# xmcd
#
# Track frame offsets:
#	150
#	11282
#	35992
#	97925
#	115312
#	164912
#
# Disc length: 2817 seconds
#
# Revision: 1
# Processed by: cddbd v1.5.1PL0 Copyright (c) Steve Scherf et al.
# Submitted via: CDex 1.50Beta5
#
DISCID=490aff06
DTITLE=柳家小三治 - 落語名人会32 小三治8 茶の湯
DYEAR=1996
DGENRE=(Minzoku)
TTITLE0=茶の湯:出囃子・まくら
TTITLE1=茶の湯:付け焼き刃の風流
TTITLE2=茶の湯:珍茶道事始
TTITLE3=茶の湯:主従風流地獄
TTITLE4=茶の湯:長家に召集令状、引越騒動に発展
TTITLE5=茶の湯:拡大する風流公害・サゲ・仲入り
EXTD=
EXTT0=
EXTT1=
EXTT2=
EXTT3=
EXTT4=
EXTT5=
PLAYORDER=
